<svg width="1280" height="832" viewBox="0 0 1280 832" fill="none" xmlns="http://www.w3.org/2000/svg">
<g clip-path="url(#clip0_75_2)">
<path d="M1117.94 -98.2841C1133.3 -77.7141 1096.05 -38.6063 1077.84 -34.0682C1035.6 -23.542 990.808 -29.0177 948.408 -18.8049C905.843 -8.55257 868.834 21.0259 835.149 47.8776C801.593 74.6255 773.154 116.845 726.652 121.748C694.202 125.169 662.525 111.117 630.595 120.384C592.478 131.448 558.929 151.215 526.504 173.745C492.307 197.506 447.677 225.132 405.562 230.028C362.246 235.064 320.839 234.66 277.27 233.777C231.823 232.856 194.593 214.445 154.679 194.603C128.431 181.554 100.115 162.064 83.1618 137.823C76.3116 128.028 65.5141 120.378 56.1264 113.141C41.3621 101.76 31.0045 87.1679 14.9557 76.9618C-14.8791 57.9888 -42.8954 39.0901 -79.6033 43.5387C-101.533 46.1964 -122.929 48.0092 -144.961 49.5568C-152.023 50.0528 -159.92 50.5179 -166.495 53.4808C-168.999 54.6086 -171.341 61.1156 -172.795 58.7867C-181.372 45.0487 -274.773 133.873 -287.142 144.548C-301.371 156.83 -309.996 157.548 -326.48 165.263C-360.715 181.288 -387.939 211.606 -414.152 238.033C-468.346 292.67 -516.643 357.65 -556.813 423.311" stroke="#8D1750" stroke-width="3" stroke-linecap="round"/>
<path d="M1129.27 -74.1579C1144.63 -53.588 1107.38 -14.4801 1089.17 -9.94203C1046.94 0.584126 1002.14 -4.89151 959.741 5.32122C917.176 15.5736 880.167 45.1521 846.481 72.0037C812.926 98.7517 784.486 140.971 737.984 145.874C705.535 149.296 673.858 135.243 641.928 144.511C603.81 155.574 570.261 175.341 537.836 197.871C503.64 221.632 459.01 249.258 416.894 254.154C373.578 259.19 332.172 258.786 288.603 257.903C243.156 256.982 205.925 238.571 166.011 218.729C139.763 205.68 111.448 186.19 94.4944 161.949C87.6443 152.154 76.8467 144.504 67.4591 137.267C52.6948 125.886 42.3371 111.294 26.2883 101.088C-3.54644 82.115 -31.5627 63.2162 -68.2707 67.6649C-90.2001 70.3225 -111.596 72.1354 -133.628 73.6829C-140.69 74.179 -148.587 74.6441 -155.163 77.6069C-157.666 78.7348 -160.008 85.2417 -161.462 82.9129C-170.039 69.1749 -263.441 157.999 -275.809 168.674C-290.039 180.956 -298.663 181.674 -315.147 189.389C-349.382 205.414 -376.607 235.732 -402.819 262.159C-457.013 316.796 -505.31 381.776 -545.48 447.437" stroke="#8D1750" stroke-width="3" stroke-linecap="round"/>
<path d="M1121.77 -131.403C1137.12 -110.833 1099.88 -71.7255 1081.67 -67.1874C1039.43 -56.6613 994.635 -62.1369 952.234 -51.9242C909.669 -41.6718 872.66 -12.0933 838.975 14.7583C805.42 41.5063 776.98 83.726 730.478 88.6289C698.029 92.0502 666.351 77.9978 634.422 87.2651C596.304 98.3286 562.755 118.096 530.33 140.626C496.134 164.387 451.504 192.013 409.388 196.909C366.072 201.945 324.666 201.54 281.096 200.657C235.65 199.736 198.419 181.326 158.505 161.484C132.257 148.435 103.942 128.945 86.9882 104.704C80.138 94.9089 69.3405 87.2585 59.9529 80.0219C45.1886 68.6404 34.8309 54.0487 18.7821 43.8426C-11.0527 24.8696 -39.069 5.97082 -75.7769 10.4195C-97.7063 13.0771 -119.102 14.89 -141.135 16.4376C-148.196 16.9336 -156.093 17.3987 -162.669 20.3615C-165.172 21.4894 -167.515 27.9963 -168.968 25.6675C-177.545 11.9295 -270.947 100.754 -283.315 111.429C-297.545 123.711 -306.17 124.428 -322.654 132.144C-356.888 148.168 -384.113 178.487 -410.326 204.914C-464.519 259.551 -512.816 324.531 -552.986 390.192" stroke="#8D1750" stroke-width="3" stroke-linecap="round"/>
<path d="M787.16 1185.2C758.136 1149.58 724.858 1109.91 724.887 1060.95C724.909 1024.27 760.774 1009.03 785.993 990.03C818.516 965.524 840.257 950.347 851.595 909.132C864.964 860.534 834.085 811.801 853.819 763.483C858.177 752.811 863.035 741.983 868.318 731.736C873.883 720.943 883.791 715.062 890.018 705.14C908.043 676.423 898.725 654.761 877.165 630.973C854.225 605.661 832.683 578.665 814.597 549.635C797.556 522.282 768.883 483.64 774.185 449.144C779.748 412.945 799.921 378.977 822.07 350.929C840.393 327.727 850.526 299.204 862.66 272.281C871.949 251.672 877.042 232.372 898.974 222.56C921.931 212.288 951.893 211.166 976.701 213.216C1018.7 216.688 1065.34 212.614 1091.38 173.865C1110.82 144.931 1141.38 103.722 1178.59 96.9944C1205.54 92.1227 1234.06 100.263 1260.58 95.0954C1292.88 88.8035 1315.32 56.0433 1339.84 36.7301C1376.06 8.19987 1355.77 -29.4949 1335.82 -59.1638C1315.29 -89.7033 1288.34 -122.201 1304.83 -161.122C1315.53 -186.374 1323.98 -212.5 1349.25 -225.858C1372.14 -237.962 1395.81 -223.724 1417.73 -213.847" stroke="#8D1750" stroke-width="3" stroke-linecap="round"/>
<path d="M800.453 1191.1C771.428 1155.48 738.15 1115.81 738.179 1066.86C738.201 1030.17 774.066 1014.93 799.286 995.931C831.808 971.425 853.549 956.248 864.887 915.033C878.256 866.435 847.377 817.702 867.111 769.384C871.47 758.712 876.327 747.884 881.61 737.638C887.175 726.844 897.083 720.963 903.311 711.041C921.335 682.325 912.017 660.663 890.458 636.874C867.517 611.562 845.976 584.566 827.89 555.537C810.848 528.183 782.175 489.541 787.477 455.045C793.041 418.846 813.214 384.878 835.362 356.83C853.685 333.628 863.818 305.105 875.952 278.183C885.241 257.573 890.334 238.274 912.266 228.461C935.223 218.189 965.186 217.067 989.993 219.117C1031.99 222.589 1078.63 218.515 1104.67 179.766C1124.11 150.833 1154.67 109.623 1191.88 102.896C1218.83 98.0239 1247.35 106.164 1273.87 100.997C1306.17 94.7047 1328.61 61.9445 1353.13 42.6314C1389.35 14.1011 1369.06 -23.5937 1349.11 -53.2626C1328.58 -83.802 1301.64 -116.3 1318.12 -155.221C1328.82 -180.473 1337.27 -206.599 1362.54 -219.957C1385.43 -232.061 1409.11 -217.823 1431.02 -207.945" stroke="#8D1750" stroke-width="3" stroke-linecap="round"/>
<path d="M826.439 1202.82C797.414 1167.19 764.136 1127.52 764.165 1078.57C764.187 1041.88 800.052 1026.65 825.272 1007.64C857.794 983.137 879.535 967.96 890.873 926.746C904.242 878.148 873.363 829.414 893.097 781.097C897.456 770.424 902.313 759.596 907.596 749.35C913.161 738.556 923.069 732.676 929.297 722.753C947.321 694.037 938.003 672.375 916.444 648.587C893.503 623.274 871.962 596.279 853.876 567.249C836.834 539.895 808.161 501.253 813.463 466.757C819.027 430.558 839.2 396.59 861.348 368.543C879.671 345.341 889.804 316.817 901.938 289.895C911.227 269.286 916.321 249.986 938.252 240.173C961.209 229.902 991.172 228.779 1015.98 230.83C1057.98 234.301 1104.62 230.228 1130.66 191.479C1150.1 162.545 1180.66 121.335 1217.87 114.608C1244.82 109.736 1273.34 117.877 1299.86 112.709C1332.15 106.417 1354.59 73.6568 1379.11 54.3437C1415.33 25.8135 1395.05 -11.8813 1375.1 -41.5502C1354.57 -72.0897 1327.62 -104.587 1344.11 -143.509C1354.81 -168.76 1363.26 -194.886 1388.52 -208.244C1411.42 -220.348 1435.09 -206.11 1457.01 -196.233" stroke="#8D1750" stroke-width="3" stroke-linecap="round"/>
<path d="M650.57 901.483C657.828 870.082 634.304 830.52 617.738 805.138C594.872 770.104 557.634 711.217 510.011 708.65C478.023 706.926 428.718 727.757 402.318 745.974C368.618 769.227 352.863 786.513 310.769 769.781C271.891 754.328 253.375 712.378 217.719 691.465C202.729 682.673 194.494 676.234 178.596 684.262C156.333 695.503 135.393 708.579 111.736 716.922C74.8824 729.919 2.14352 739.378 -24.4544 698.626C-31.4671 687.881 -39.6962 659.311 -34.049 646.665C-27.9606 633.032 -1.59388 638.029 -15.2196 617.764C-25.4341 602.572 -35.0495 589.993 -42.6299 573.286C-49.8265 557.426 -50.559 542.38 -54.1843 525.616C-56.1893 516.345 -58.1521 503.767 -67.1406 498.323C-76.4827 492.664 -94.9743 493.931 -98.2297 481.698C-108.804 441.965 -99.9859 401.727 -112.816 361.561C-126.546 318.575 -151.39 275.025 -199.504 267.241C-233.157 261.797 -253.463 303.243 -270.381 325.449C-292.273 354.184 -300.878 393.154 -311.986 426.92C-322.184 457.924 -327.351 493.211 -353.92 514.39C-372.45 529.162 -382.198 548.167 -394.452 567.592" stroke="#8D1750" stroke-width="3" stroke-linecap="round"/>
<path d="M661.607 868.515C668.865 837.114 645.342 797.552 628.776 772.17C605.91 737.136 568.672 678.248 521.048 675.682C489.061 673.958 439.756 694.789 413.355 713.006C379.656 736.259 363.901 753.545 321.807 736.813C282.928 721.36 264.413 679.409 228.757 658.497C213.766 649.705 205.531 643.266 189.633 651.293C167.37 662.535 146.43 675.61 122.774 683.954C85.9199 696.951 13.181 706.41 -13.4169 665.658C-20.4297 654.913 -28.6588 626.343 -23.0115 613.697C-16.9231 600.064 9.4436 605.06 -4.18217 584.796C-14.3967 569.604 -24.012 557.025 -31.5925 540.318C-38.789 524.457 -39.5215 509.412 -43.1468 492.648C-45.1518 483.376 -47.1147 470.799 -56.1032 465.355C-65.4452 459.696 -83.9368 460.963 -87.1922 448.73C-97.7664 408.997 -88.9485 368.759 -101.778 328.593C-115.509 285.607 -140.353 242.056 -188.467 234.273C-222.12 228.829 -242.426 270.275 -259.344 292.481C-281.235 321.216 -289.841 360.186 -300.948 393.952C-311.147 424.956 -316.314 460.243 -342.882 481.422C-361.413 496.193 -371.161 515.199 -383.415 534.624" stroke="#8D1750" stroke-width="3" stroke-linecap="round"/>
<path d="M639.745 934.976C647.003 903.574 623.48 864.012 606.914 838.631C584.048 803.596 546.81 744.709 499.187 742.142C467.199 740.419 417.894 761.249 391.493 779.466C357.794 802.72 342.039 820.005 299.945 803.274C261.066 787.82 242.551 745.87 206.895 724.957C191.905 716.165 183.669 709.726 167.772 717.754C145.508 728.996 124.568 742.071 100.912 750.414C64.0581 763.411 -8.68082 772.87 -35.2788 732.118C-42.2915 721.373 -50.5206 692.803 -44.8733 680.157C-38.7849 666.524 -12.4182 671.521 -26.044 651.256C-36.2585 636.065 -45.8738 623.485 -53.4543 606.778C-60.6508 590.918 -61.3834 575.873 -65.0086 559.108C-67.0136 549.837 -68.9765 537.26 -77.965 531.815C-87.307 526.157 -105.799 527.423 -109.054 515.191C-119.628 475.458 -110.81 435.22 -123.64 395.053C-137.37 352.067 -162.214 308.517 -210.329 300.733C-243.982 295.289 -264.287 336.735 -281.206 358.942C-303.097 387.676 -311.703 426.647 -322.81 460.412C-333.009 491.416 -338.175 526.704 -364.744 547.883C-383.274 562.654 -393.022 581.659 -405.276 601.085" stroke="#8D1750" stroke-width="3" stroke-linecap="round"/>
</g>
<defs>
<clipPath id="clip0_75_2">
<rect width="1280" height="832" fill="white"/>
</clipPath>
</defs>
</svg>
